<?xml version="1.0" standalone="no"?>
<!DOCTYPE svg PUBLIC "-//W3C//DTD SVG 20010904//EN"
 "http://www.w3.org/TR/2001/REC-SVG-20010904/DTD/svg10.dtd">
<svg version="1.0" xmlns="http://www.w3.org/2000/svg"
 width="176.000000pt" height="176.000000pt" viewBox="0 0 176.000000 176.000000"
 preserveAspectRatio="xMidYMid meet">
<metadata>
Created by potrace 1.11, written by Peter Selinger 2001-2013
</metadata>
<g transform="translate(0.000000,176.000000) scale(0.100000,-0.100000)"
fill="#000000" stroke="none">
<path d="M1295 1753 c-60 -13 -135 -92 -155 -162 -6 -21 -10 -197 -10 -429 l0
-393 -97 67 c-54 37 -100 70 -103 74 -3 3 -30 22 -60 43 -30 20 -86 59 -125
86 -38 28 -115 81 -170 118 l-100 68 -70 0 c-52 -1 -80 -6 -111 -22 -83 -44
-131 -134 -121 -228 10 -96 34 -120 322 -322 143 -100 265 -186 270 -190 39
-31 478 -334 506 -348 19 -10 59 -19 90 -20 124 -5 230 93 232 214 0 25 -1
322 -2 659 l-2 614 -23 46 c-13 26 -35 57 -48 69 -50 47 -151 72 -223 56z"/>
</g>
</svg>
