<svg width="22" height="21" viewBox="0 0 22 21" fill="none" xmlns="http://www.w3.org/2000/svg">
<path d="M19 5.5H3C1.89543 5.5 1 6.39543 1 7.5V17.5C1 18.6046 1.89543 19.5 3 19.5H19C20.1046 19.5 21 18.6046 21 17.5V7.5C21 6.39543 20.1046 5.5 19 5.5Z" stroke="white" stroke-width="1.5" stroke-linecap="round" stroke-linejoin="round"/>
<path d="M15 19.5V3.5C15 2.96957 14.7893 2.46086 14.4142 2.08579C14.0391 1.71071 13.5304 1.5 13 1.5H9C8.46957 1.5 7.96086 1.71071 7.58579 2.08579C7.21071 2.46086 7 2.96957 7 3.5V19.5" stroke="white" stroke-width="1.5" stroke-linecap="round" stroke-linejoin="round"/>
</svg>
